<svg width="44" height="44" viewBox="0 0 44 44" fill="none" xmlns="http://www.w3.org/2000/svg">
<circle cx="22" cy="22" r="22" fill="#00B900"/>
<path fill-rule="evenodd" clip-rule="evenodd" d="M21.9999 10.5C15.1079 10.5 9.5 15.0508 9.5 20.6441C9.5 25.6586 13.9469 29.8583 19.9539 30.6523C20.3611 30.7401 20.9152 30.9203 21.0551 31.2685C21.1813 31.5847 21.1375 32.0796 21.0955 32.3986C21.0955 32.3986 20.949 33.2807 20.9172 33.469L20.9125 33.496C20.853 33.8338 20.7023 34.6896 21.9999 34.1427C23.3342 33.5805 29.1988 29.9041 31.8215 26.8854C33.6322 24.8987 34.5 22.8828 34.5 20.6441C34.5 15.0508 28.8927 10.5 21.9999 10.5ZM18.5833 17.9414C18.4491 17.9414 18.3398 18.0504 18.3398 18.1846V23.6311C18.3398 23.7653 18.4491 23.874 18.5833 23.874H19.4602C19.5947 23.874 19.7037 23.7653 19.7037 23.6311V18.1846C19.7037 18.0504 19.5947 17.9414 19.4602 17.9414H18.5833ZM24.3758 18.1846C24.3758 18.0504 24.4846 17.9414 24.6193 17.9414H25.4959C25.6304 17.9414 25.7394 18.0504 25.7394 18.1846V23.6311C25.7394 23.7653 25.6304 23.874 25.4959 23.874H24.6193C24.5973 23.874 24.5764 23.8712 24.5569 23.8658C24.5558 23.8658 24.5544 23.8652 24.5532 23.8652L24.5532 23.8652L24.5532 23.8652C24.5478 23.8635 24.5423 23.8617 24.5366 23.8597C24.5343 23.8589 24.532 23.8577 24.5295 23.8569L24.5175 23.852C24.5135 23.8503 24.5097 23.8483 24.506 23.8463L24.4991 23.8426C24.494 23.8397 24.4888 23.8366 24.484 23.8334C24.4831 23.8326 24.4823 23.832 24.4814 23.8314C24.4582 23.8157 24.4371 23.7957 24.4196 23.7713L21.9205 20.3965V23.6311C21.9205 23.7653 21.8115 23.874 21.677 23.874H20.8001C20.6659 23.874 20.5566 23.7653 20.5566 23.6311V18.1846C20.5566 18.0504 20.6659 17.9414 20.8001 17.9414H21.677C21.6799 17.9414 21.6825 17.9417 21.6856 17.9417L21.6982 17.9426L21.7023 17.943L21.7023 17.943C21.7052 17.9434 21.7081 17.9437 21.7108 17.9443C21.7142 17.9446 21.7176 17.9451 21.7211 17.9457C21.7259 17.9466 21.7305 17.9474 21.7351 17.9486L21.7437 17.9508C21.7485 17.9523 21.7534 17.9537 21.758 17.9557C21.7608 17.9566 21.7631 17.9574 21.766 17.9586C21.7698 17.9597 21.7734 17.9613 21.7769 17.9629L21.78 17.9643L21.7877 17.968L21.795 17.9721L21.8006 17.9755L21.8028 17.9766L21.8028 17.9766C21.8046 17.9776 21.8064 17.9785 21.8081 17.9797C21.8123 17.9826 21.8166 17.9855 21.8206 17.9883C21.8229 17.99 21.8249 17.9915 21.8269 17.9935C21.83 17.9955 21.8328 17.998 21.8357 18.0004L21.8401 18.0041L21.8444 18.0084C21.8493 18.0129 21.8544 18.0181 21.8593 18.0232C21.8596 18.0238 21.8601 18.0244 21.8607 18.0249C21.8673 18.0327 21.8739 18.041 21.8796 18.0496L24.3758 21.4204V18.1846ZM14.9635 22.5102V18.1846C14.9635 18.0501 14.8545 17.9414 14.72 17.9414H13.8431C13.7089 17.9414 13.5996 18.0501 13.5996 18.1846V23.6306C13.5996 23.6964 13.6259 23.7556 13.668 23.7991L13.6687 23.8C13.6693 23.801 13.6701 23.802 13.6711 23.8031C13.6723 23.804 13.6737 23.8048 13.6746 23.8062C13.7186 23.8483 13.7776 23.8743 13.8428 23.8743H17.3458C17.4803 23.8743 17.589 23.765 17.589 23.6306V22.754C17.589 22.6195 17.4803 22.5102 17.3458 22.5102H14.9635ZM30.5812 19.0618C30.5812 19.1963 30.4725 19.3053 30.338 19.3053H27.9559V20.2257H30.338C30.4725 20.2257 30.5812 20.3349 30.5812 20.4694V21.346C30.5812 21.4808 30.4725 21.5895 30.338 21.5895H27.9559V22.5102H30.338C30.4725 22.5102 30.5812 22.6195 30.5812 22.754V23.6306C30.5812 23.765 30.4725 23.8743 30.338 23.8743H26.835C26.7695 23.8743 26.7105 23.848 26.667 23.806C26.666 23.8055 26.6649 23.8046 26.664 23.8038C26.6638 23.8035 26.6635 23.8033 26.6633 23.8031C26.6622 23.802 26.6607 23.8005 26.6602 23.7991C26.6178 23.7556 26.5918 23.6964 26.5918 23.6311V23.6306V18.1846C26.5918 18.1194 26.6178 18.0604 26.6596 18.0169C26.66 18.0162 26.6606 18.0155 26.6612 18.0148C26.6619 18.0141 26.6626 18.0134 26.6633 18.0126C26.6637 18.0123 26.6642 18.0119 26.6646 18.0116C26.6652 18.0112 26.6657 18.0107 26.6662 18.0101C26.71 17.9677 26.7692 17.9414 26.8356 17.9414H30.338C30.4725 17.9414 30.5812 18.0504 30.5812 18.1849V19.0618Z" fill="white"/>
</svg>
