<svg width="44" height="44" viewBox="0 0 44 44" fill="none" xmlns="http://www.w3.org/2000/svg">
<circle cx="22" cy="22" r="22" fill="#FAE100"/>
<path fill-rule="evenodd" clip-rule="evenodd" d="M31.7707 24.1546C31.7201 24.6248 31.2646 24.661 31.1263 24.661C31.0922 24.661 31.0591 24.6596 31.0253 24.6561C30.787 24.6314 30.653 24.4819 30.4038 24.1454L28.7074 21.8331L28.2428 22.3065V24.0447C28.2428 24.3963 27.9651 24.661 27.5977 24.661C27.2113 24.661 26.9512 24.4132 26.9512 24.0447V18.7004C26.9512 18.3319 27.2232 18.0645 27.5977 18.0645C27.9834 18.0645 28.2428 18.32 28.2428 18.7004V20.7695L30.5171 18.3988C30.6192 18.2985 30.7842 18.1634 31.0306 18.1634C31.3435 18.1714 31.6571 18.3787 31.6486 18.7585C31.6486 18.9359 31.543 19.0531 31.3312 19.2864C31.2826 19.3392 31.2305 19.3973 31.1731 19.4631L29.6186 21.031L31.4575 23.4383C31.6472 23.6861 31.8052 23.8913 31.7707 24.1546ZM26.395 24.0254C26.3869 24.2999 26.1683 24.5889 25.778 24.5889H23.3707C22.9484 24.5889 22.6953 24.3221 22.6953 23.8744V18.7388C22.6953 18.3231 22.9431 18.0645 23.3415 18.0645C23.7399 18.0645 23.987 18.3231 23.987 18.7388V23.4141H25.778C25.9709 23.4141 26.1317 23.4764 26.2426 23.5939C26.3489 23.7065 26.4041 23.8635 26.395 24.0254ZM20.8018 24.213C20.9017 24.5146 21.108 24.6614 21.4321 24.6614C21.7619 24.6614 22.0213 24.4161 22.0213 24.1032C22.0213 24.0535 22.0058 23.9272 21.9481 23.7716L20.1313 18.8155C19.9627 18.3383 19.6119 18.0645 19.1691 18.0645C18.6658 18.0645 18.3431 18.453 18.209 18.8169L16.3345 23.7808C16.3152 23.8301 16.2754 23.9318 16.2754 24.0645C16.2754 24.3992 16.5545 24.6614 16.9107 24.6614C17.2337 24.6614 17.4312 24.5157 17.5322 24.2031L17.8211 23.3299H20.5199L20.8018 24.213ZM18.1836 22.1857L19.1567 19.2473C19.161 19.2353 19.1782 19.2353 19.1817 19.2473L20.1566 22.1857H18.1836ZM15.1856 23.9859C15.1856 24.4022 14.9382 24.6609 14.5398 24.6609C14.1421 24.6609 13.8943 24.4022 13.8943 23.9859V19.2972H12.5358C12.11 19.2972 11.959 18.9815 11.959 18.7105C11.959 18.4258 12.1607 18.1221 12.5358 18.1221H16.5431C16.919 18.1221 17.1221 18.4258 17.1221 18.7105C17.1221 18.9815 16.9697 19.2972 16.5431 19.2972H15.1856V23.9859ZM21.9996 10.5C14.544 10.5 8.5 15.2745 8.5 21.1626C8.5 24.9488 10.9992 28.2744 14.7654 30.1661L13.4927 34.9185C13.4459 35.0589 13.4815 35.212 13.5856 35.3165C13.661 35.3918 13.7602 35.4295 13.8591 35.4295C13.9439 35.4295 14.0284 35.4024 14.0995 35.3468L19.5726 31.6531C20.3599 31.7657 21.1712 31.8252 21.9996 31.8252C29.4557 31.8252 35.5 27.0517 35.5 21.1626C35.5 15.2745 29.4557 10.5 21.9996 10.5Z" fill="#3C1E1E"/>
</svg>
